Coordinates
version=1
nRows=4
nColumns=124
inDegrees=yes

Units are S.I. units (second, meters, Newtons, ...)
If the header above contains a line with 'inDegrees', this indicates whether rotational values are in degrees (yes) or radians (no).

endheader 
time	pelvis_tilt	pelvis_list	pelvis_rotation	pelvis_tx	pelvis_ty	pelvis_tz	hip_flexion_l	hip_adduction_l	hip_rotation_l	hip_flexion_r	hip_adduction_r	hip_rotation_r	knee_angle_l	knee_angle_r	ankle_angle_l	ankle_angle_r	subtalar_angle_l	subtalar_angle_r	mtp_angle_l	mtp_angle_r	lumbar_extension	lumbar_bending	lumbar_rotation	arm_flex_l	arm_add_l	arm_rot_l	arm_flex_r	arm_add_r	arm_rot_r	elbow_flex_l	elbow_flex_r	glut_med1_l/activation	glut_med2_l/activation	glut_med3_l/activation	glut_min1_l/activation	glut_min2_l/activation	glut_min3_l/activation	semimem_l/activation	semiten_l/activation	bifemlh_l/activation	bifemsh_l/activation	sar_l/activation	add_long_l/activation	add_brev_l/activation	add_mag1_l/activation	add_mag2_l/activation	add_mag3_l/activation	tfl_l/activation	pect_l/activation	grac_l/activation	glut_max1_l/activation	glut_max2_l/activation	glut_max3_l/activation	iliacus_l/activation	psoas_l/activation	quad_fem_l/activation	gem_l/activation	peri_l/activation	rect_fem_l/activation	vas_med_l/activation	vas_int_l/activation	vas_lat_l/activation	med_gas_l/activation	lat_gas_l/activation	soleus_l/activation	tib_post_l/activation	flex_dig_l/activation	flex_hal_l/activation	tib_ant_l/activation	per_brev_l/activation	per_long_l/activation	per_tert_l/activation	ext_dig_l/activation	ext_hal_l/activation	ercspn_l/activation	intobl_l/activation	extobl_l/activation	glut_med1_r/activation	glut_med2_r/activation	glut_med3_r/activation	glut_min1_r/activation	glut_min2_r/activation	glut_min3_r/activation	semimem_r/activation	semiten_r/activation	bifemlh_r/activation	bifemsh_r/activation	sar_r/activation	add_long_r/activation	add_brev_r/activation	add_mag1_r/activation	add_mag2_r/activation	add_mag3_r/activation	tfl_r/activation	pect_r/activation	grac_r/activation	glut_max1_r/activation	glut_max2_r/activation	glut_max3_r/activation	iliacus_r/activation	psoas_r/activation	quad_fem_r/activation	gem_r/activation	peri_r/activation	rect_fem_r/activation	vas_med_r/activation	vas_int_r/activation	vas_lat_r/activation	med_gas_r/activation	lat_gas_r/activation	soleus_r/activation	tib_post_r/activation	flex_dig_r/activation	flex_hal_r/activation	tib_ant_r/activation	per_brev_r/activation	per_long_r/activation	per_tert_r/activation	ext_dig_r/activation	ext_hal_r/activation	ercspn_r/activation	intobl_r/activation	extobl_r/activation	
          0.00000000	         -3.74962093	         -9.72077247	         12.21370454	          0.00000000	          1.00126081	         -0.01528486	         -6.94000390	        -10.72421974	          8.28883142	         24.58649135	          7.96813462	         -2.19856566	         -4.62366825	        -12.48504278	         16.82914415	         -8.11349327	         -6.99535866	        -14.48544251	         11.17852677	          0.15902603	          1.89828868	          2.71725719	         -1.67923800	         -1.01439824	        -13.50927029	         19.16946223	         11.45131925	        -13.48302666	         16.49041765	         14.78244463	         22.06376347	          0.06346924	          0.25425924	          0.20915225	          0.09561207	          0.14097071	          0.10854066	          0.05000172	          0.05000190	          0.05000102	          0.15723035	          0.18080445	          0.05000022	          0.05000073	          0.05000386	          0.05000486	          0.05000528	          0.26594959	          0.05000172	          0.05000140	          0.05006749	          0.05383841	          0.05001618	          0.22586614	          0.39229011	          0.14912646	          0.16477257	          0.20914143	          0.20936359	          0.05000441	          0.05000404	          0.05000377	          0.92793388	          0.74366665	          0.97502212	          0.60942467	          0.35952754	          0.40854991	          0.05001403	          0.05000222	          0.05000223	          0.05000244	          0.05000069	          0.05000170	          0.05000004	          0.05000011	          0.05000017	          0.05000118	          0.05000118	          0.05000375	          0.05000309	          0.05000281	          0.05000766	          0.05000205	          0.06346808	          0.05001163	          0.06149284	          0.05000145	          0.20913059	          0.35248481	          0.07178433	          0.08057545	          0.06580520	          0.05000893	          0.09976099	          0.18241245	          0.05000674	          0.05000771	          0.06347871	          0.12979814	          0.12980015	          0.10939172	          0.05000409	          0.05000090	          0.12979998	          0.08134858	          0.07838894	          0.08477684	          0.05000029	          0.05000059	          0.06346606	          0.06657324	          0.05000166	          0.05000148	          0.41425494	          0.14772676	          0.07930866	          0.31723290	          0.59674387	          0.33124402	          0.15100399	          0.34834125	          0.11247331	
          0.01616052	         -3.74477389	         -9.05439701	         12.21482158	          0.01367694	          0.99805253	         -0.01578483	         -7.75383132	        -10.17025381	          7.62899070	         25.18810526	          7.48626783	         -1.57312368	         -5.01210411	        -14.20817613	         17.12025867	         -7.04048898	         -6.29293454	        -15.00080577	         12.12284007	          0.32737779	          1.95167466	          2.93500229	         -1.83806874	         -1.30806837	        -13.46341994	         19.34892343	          9.87936594	        -13.46945848	         18.02010533	         19.52626139	         19.56302971	          0.05002037	          0.20030819	          0.16477277	          0.07532534	          0.11105892	          0.08551218	          0.05000099	          0.05000084	          0.05000078	          0.13447959	          0.14244080	          0.15144801	          0.05000279	          0.05000733	          0.05000642	          0.05000440	          0.20951790	          0.06384708	          0.05003627	          0.05002323	          0.05001188	          0.05000333	          0.20923725	          0.30905073	          0.20041712	          0.12981322	          0.16476423	          0.16493879	          0.05000143	          0.05000131	          0.05000128	          0.94561534	          0.77017137	          0.98797615	          0.61895808	          0.37427037	          0.42876128	          0.05000173	          0.05000653	          0.05482735	          0.05000239	          0.05000055	          0.05000171	          0.05649732	          0.05000008	          0.05000010	          0.05000198	          0.05000075	          0.05000273	          0.05001527	          0.05000532	          0.05000954	          0.05000037	          0.05000123	          0.05000041	          0.05000101	          0.09770941	          0.16475531	          0.27769111	          0.05656706	          0.06348312	          0.05184461	          0.05004106	          0.07861705	          0.14370670	          0.05000339	          0.05000207	          0.05001081	          0.10225755	          0.10225832	          0.08618033	          0.05000153	          0.05004509	          0.10225873	          0.20961080	          0.21990879	          0.22037364	          0.05000005	          0.05000011	          0.05000000	          0.12967508	          0.05000103	          0.05000059	          0.36724898	          0.16034932	          0.10945634	          0.38330340	          0.52245374	          0.28684718	          0.11896595	          0.28596798	          0.08860763	
          0.03232103	         -3.73201702	         -8.37956504	         12.17154545	          0.02804343	          0.99498698	         -0.01622496	         -8.51345140	         -9.59439858	          6.94253908	         25.33943542	          7.15613393	         -0.87197126	         -5.60263013	        -16.27596192	         17.31448084	         -4.77360694	         -5.63303850	        -15.48027680	         13.15873381	          1.04483581	          2.03827278	          3.18146079	         -2.00384607	         -1.90623106	        -13.49669900	         19.23735647	          7.84847381	        -13.46342713	         18.92621258	         24.84144732	         17.92120418	          0.05000696	          0.15780496	          0.12981000	          0.05934315	          0.08749394	          0.06736956	          0.06441660	          0.08063152	          0.07990872	          0.10594515	          0.11221672	          0.25418034	          0.11964115	          0.06376950	          0.05075755	          0.05003691	          0.16506040	          0.05116767	          0.15679146	          0.05003491	          0.05011278	          0.10474546	          0.16483951	          0.24347351	          0.15789110	          0.10226984	          0.12980320	          0.12994046	          0.05000574	          0.05000533	          0.05000499	          0.94049001	          0.77543830	          0.99421193	          0.62471267	          0.38658973	          0.44205092	          0.05000159	          0.05000161	          0.05000251	          0.05000147	          0.05000039	          0.05000124	          0.08512538	          0.05000019	          0.05000076	          0.05004089	          0.32539905	          0.05001431	          0.05001327	          0.05001727	          0.05002816	          0.08083315	          0.05000405	          0.10799617	          0.05765294	          0.07697953	          0.12979594	          0.21876785	          0.05001538	          0.05002164	          0.05000503	          0.05000844	          0.06194027	          0.11321386	          0.05001126	          0.05000872	          0.05000541	          0.08055972	          0.08056032	          0.15052005	          0.33289399	          0.52205133	          0.08056056	          0.16513363	          0.17324648	          0.17361266	          0.06837179	          0.06352611	          0.08056186	          0.21798256	          0.05001926	          0.05225424	          0.28932268	          0.12632609	          0.08623179	          0.30197063	          0.41159450	          0.22598166	          0.09372257	          0.25391038	          0.06980599	
          0.04848155	         -3.71440143	         -7.72977910	         12.07331821	          0.04271951	          0.99236345	         -0.01657901	         -9.10964162	         -9.01359542	          6.24945401	         25.09170420	          6.91327635	         -0.10454060	         -6.52244038	        -17.96583351	         17.34188272	         -2.11444354	         -5.07599572	        -15.92969920	         14.30679809	          2.10755730	          2.13850562	          3.47731050	         -2.16906330	         -2.70649326	        -13.55346301	         18.91658793	          5.48892444	        -13.46927831	         19.29079696	         30.55542548	         16.94706079	          0.05001348	          0.12432048	          0.10226589	          0.05000656	          0.06892943	          0.05307737	          0.08524429	          0.09540950	          0.07970502	          0.08346533	          0.08840588	          0.33595525	          0.23418281	          0.06098522	          0.05551488	          0.07769700	          0.13003635	          0.05002909	          0.12354484	          0.05002639	          0.05002615	          0.08252599	          0.12986261	          0.19181133	          0.12438831	          0.08057003	          0.10226050	          0.10236844	          0.05001639	          0.05001733	          0.05001323	          0.90021851	          0.74647346	          0.99721366	          0.62283166	          0.39027308	          0.44271129	          0.05000135	          0.05000306	          0.05938358	          0.05000143	          0.05000037	          0.05000114	          0.13603196	          0.05000010	          0.08363289	          0.23633923	          0.60960560	          0.35687347	          0.07389161	          0.21500490	          0.08463511	          0.09128476	          0.10861861	          0.12471393	          0.05000582	          0.06064642	          0.10225459	          0.17234752	          0.05001575	          0.05001823	          0.06465148	          0.05000651	          0.05000635	          0.08919130	          0.24785970	          0.35040931	          0.18010527	          0.06346590	          0.06346638	          0.18934886	          0.33509809	          0.54639920	          0.06346656	          0.14459031	          0.24493990	          0.26481602	          0.05386405	          0.05004664	          0.06346744	          0.26104761	          0.05000608	          0.05000139	          0.23286405	          0.09952131	          0.06793451	          0.23789720	          0.32426085	          0.19729071	          0.07383559	          0.20712494	          0.05499390	
